<svg width="26" height="26" viewBox="0 0 18 18" fill="none" xmlns="http://www.w3.org/2000/svg">
        <path d="M8.599 3.07093C6.57216 3.07093 4.91384 4.72925 4.91384 6.75609C4.91384 8.78293 6.57216 10.4412 8.599 10.4412C10.6258 10.4412 12.2842 8.78293 12.2842 6.75609C12.2842 4.72925 10.6258 3.07093 8.599 3.07093ZM8.599 9.21286C7.24777 9.21286 6.14223 8.10731 6.14223 6.75609C6.14223 5.40487 7.24777 4.29932 8.599 4.29932C9.95022 4.29932 11.0558 5.40487 11.0558 6.75609C11.0558 8.10731 9.95022 9.21286 8.599 9.21286Z" fill="#fff"></path>
        <path d="M8.5987 0C3.83888 0 0 3.83888 0 8.5987C0 10.9326 0.951999 13.0823 2.45677 14.6178C2.82529 14.9863 3.22451 15.3241 3.68516 15.6312C5.06709 16.6139 6.75612 17.1667 8.5987 17.1667C10.4413 17.1667 12.1301 16.5832 13.5122 15.6312C13.9422 15.3241 14.3414 14.9863 14.7406 14.6178C16.2761 13.0516 17.1974 10.9326 17.1974 8.5987C17.1974 3.83888 13.3585 0 8.5987 0ZM8.5987 15.969C6.75612 15.969 5.0978 15.2934 3.80799 14.1879C4.1458 13.0823 5.15922 12.2839 6.35689 12.2839H10.871C12.0687 12.2839 13.0821 13.0823 13.4199 14.1879C12.0994 15.2934 10.4411 15.969 8.59835 15.969H8.5987ZM14.3412 13.2051C13.6963 11.9153 12.3758 11.0555 10.871 11.0555H6.35689C4.82141 11.0555 3.5009 11.946 2.88671 13.2051C1.84258 11.946 1.22839 10.3491 1.22839 8.5987C1.22839 4.54503 4.54503 1.22839 8.5987 1.22839C12.6524 1.22839 15.969 4.54503 15.969 8.5987C15.969 10.3491 15.3548 11.946 14.3414 13.2051H14.3412Z" fill="#fff"></path>
        </svg>