<svg width="45" height="44" viewBox="0 0 45 44" fill="none" xmlns="http://www.w3.org/2000/svg">
<ellipse cx="22.0613" cy="22" rx="22.0613" ry="22" fill="#B7D340"></ellipse>
<path d="M19.1981 18.9434C20.4559 18.9434 21.4751 17.8963 21.4751 16.6051C21.475 15.313 20.4561 14.2662 19.1985 14.2662C17.9404 14.2662 16.9219 15.3133 16.9219 16.6051C16.9215 17.8966 17.9407 18.9434 19.1982 18.9434H19.1981ZM19.1981 15.4359C19.8268 15.4359 20.3367 15.9594 20.3367 16.6051C20.3367 17.2507 19.8268 17.7743 19.1981 17.7743C18.5695 17.7743 18.0595 17.2507 18.0595 16.6051C18.0595 15.9594 18.5699 15.4359 19.1981 15.4359Z" fill="white"></path>
<path d="M26.2651 14.508L17.048 23.6994C16.5127 24.2333 17.3222 25.0408 17.8578 24.5066L27.0749 15.3151C27.6101 14.7814 26.8005 13.9743 26.2651 14.508Z" fill="white"></path>
<path d="M24.9237 20.0717C23.666 20.0717 22.6467 21.1188 22.6467 22.41C22.6469 23.7021 23.6658 24.7489 24.9234 24.7489C26.1815 24.7489 27.2 23.7018 27.2 22.41C27.2004 21.1186 26.1811 20.0717 24.9237 20.0717H24.9237ZM24.9237 23.5792C24.2951 23.5792 23.7851 23.0557 23.7851 22.41C23.7851 21.7644 24.2951 21.2409 24.9237 21.2409C25.5524 21.2409 26.0623 21.7644 26.0623 22.41C26.0623 23.0557 25.552 23.5792 24.9237 23.5792Z" fill="white"></path>
<path d="M31.9951 29.6743L29.5304 25.4169C30.8231 23.7944 31.5954 21.741 31.5954 19.5078C31.5952 14.2572 27.3261 10 22.061 10C16.7959 10 12.5267 14.2572 12.5267 19.5078C12.5267 21.7408 13.2992 23.7942 14.5917 25.4169L12.1268 29.6743C11.8661 30.0611 12.1843 30.5884 12.6592 30.5212L16.0116 30.0419L17.267 33.1655C17.4279 33.5899 18.0205 33.6495 18.2545 33.2465L20.7554 28.9269C21.1822 28.9853 21.6178 29.0155 22.0607 29.0155C22.5036 29.0155 22.939 28.9855 23.366 28.9269L25.8669 33.2465C26.1007 33.6489 26.6939 33.5908 26.8544 33.1655L28.1098 30.0419L31.4624 30.5212C31.9376 30.5884 32.256 30.0611 31.9954 29.6743H31.9951ZM17.8689 31.7251L16.8685 29.2361C16.7725 28.9975 16.5268 28.8635 16.2825 28.8985L13.6192 29.2787L15.3603 26.2714C16.5259 27.42 17.987 28.2707 19.6198 28.7009L17.8689 31.7251ZM22.0606 27.8644C19.7465 27.8644 17.6512 26.9289 16.1351 25.4169C14.6186 23.9047 13.6807 21.8152 13.6807 19.5078C13.6807 14.8925 17.4325 11.1507 22.0607 11.1507C26.6888 11.1507 30.4406 14.8921 30.4406 19.5074C30.4406 21.8151 29.5025 23.9045 27.9863 25.4165C26.47 26.9287 24.3747 27.8641 22.0607 27.8641L22.0606 27.8644ZM27.8383 28.8983C27.5937 28.8635 27.3482 28.9977 27.2523 29.2359L26.2521 31.7248L24.5011 28.7005C26.1336 28.2707 27.5952 27.4195 28.7607 26.2711L30.5017 29.2784L27.8383 28.8983Z" fill="white"></path>
</svg>