<svg width="45" height="44" viewBox="0 0 45 44" fill="none" xmlns="http://www.w3.org/2000/svg">
<ellipse cx="22.0613" cy="22" rx="22.0613" ry="22" fill="#B7D340"></ellipse>
<path d="M32.9825 18.75C32.9325 18.6017 32.8034 18.4939 32.6482 18.4708L30.8475 18.1959L30.0411 16.4792H30.0409C29.9732 16.3305 29.8245 16.2353 29.6607 16.2353C29.497 16.2353 29.3483 16.3305 29.2806 16.4792L28.4532 18.2083L26.6524 18.4832C26.4966 18.5059 26.3668 18.6138 26.3166 18.7624C26.2663 18.9112 26.304 19.0755 26.4142 19.1875L27.7303 20.5292L27.4211 22.4334H27.4212C27.3916 22.5937 27.4586 22.7565 27.5925 22.85C27.7231 22.9423 27.8952 22.952 28.0353 22.8749L29.6399 21.9791L31.2444 22.8666C31.3071 22.9005 31.3776 22.9178 31.449 22.9166C31.5343 22.9165 31.6173 22.8902 31.6872 22.8417C31.8212 22.7481 31.8881 22.5854 31.8585 22.425L31.5492 20.5208L32.8653 19.1791H32.8655C32.9841 19.0705 33.0297 18.9036 32.9825 18.75ZM30.8223 20.0874C30.7298 20.1823 30.688 20.3153 30.7094 20.4459L30.9184 21.6959L29.8613 21.1125C29.732 21.0381 29.5727 21.0381 29.4434 21.1125L28.3864 21.7208L28.5953 20.4708C28.6169 20.3402 28.575 20.2074 28.4824 20.1125L27.58 19.1667L28.8042 19C28.9419 18.9778 29.0594 18.8888 29.1176 18.7624L29.6399 17.6458L30.1663 18.75C30.2245 18.8763 30.342 18.9654 30.4796 18.9876L31.6997 19.171L30.8223 20.0874Z" fill="white"></path>
<path d="M26.609 16.526C26.5478 16.3448 26.39 16.2129 26.2002 16.1847L23.9979 15.8487L23.0118 13.7504H23.0115C22.9287 13.5688 22.7469 13.4524 22.5466 13.4524C22.3463 13.4524 22.1645 13.5688 22.0817 13.7504L21.0698 15.8639L18.8675 16.1999C18.6771 16.2277 18.5183 16.3595 18.4569 16.5412C18.3953 16.7231 18.4414 16.9238 18.5762 17.0607L20.1858 18.7006L19.8076 21.028H19.8078C19.7716 21.224 19.8534 21.4229 20.0172 21.5373C20.1769 21.6501 20.3875 21.6619 20.5588 21.5678L22.5211 20.4729L24.4834 21.5576C24.56 21.599 24.6462 21.6201 24.7336 21.6187C24.8379 21.6185 24.9394 21.5865 25.0249 21.5271C25.1887 21.4128 25.2706 21.2138 25.2343 21.0178L24.8561 18.6904L26.4657 17.0505H26.4659C26.611 16.9177 26.6667 16.7138 26.609 16.526ZM23.9671 18.1607C23.854 18.2766 23.8029 18.4392 23.8291 18.5988L24.0846 20.1266L22.7919 19.4136C22.6338 19.3227 22.439 19.3227 22.2809 19.4136L20.9881 20.1571L21.2436 18.6292C21.2701 18.4696 21.2188 18.3073 21.1056 18.1913L20.002 17.0353L21.4991 16.8316C21.6675 16.8045 21.8112 16.6956 21.8824 16.5412L22.5211 15.1764L23.1649 16.526C23.236 16.6804 23.3798 16.7893 23.5481 16.8164L25.0402 17.0405L23.9671 18.1607Z" fill="white"></path>
<path d="M15.8141 16.4914C15.7463 16.343 15.5977 16.2476 15.4339 16.2476C15.2701 16.2476 15.1215 16.343 15.0538 16.4914L14.2472 18.2081L12.4464 18.4831C12.2907 18.5057 12.1609 18.6136 12.1107 18.7623C12.0603 18.9111 12.098 19.0753 12.2082 19.1873L13.5244 20.529L13.2151 22.4332H13.2153C13.1856 22.5935 13.2526 22.7563 13.3865 22.8499C13.5171 22.9421 13.6893 22.9518 13.8293 22.8748L15.4339 21.979L17.0384 22.8665C17.1011 22.9003 17.1716 22.9176 17.2431 22.9165C17.3283 22.9163 17.4113 22.8901 17.4813 22.8415C17.6152 22.748 17.6822 22.5852 17.6525 22.4249L17.3432 20.5207L18.6594 19.179H18.6595C18.7698 19.067 18.8075 18.9027 18.7571 18.7539C18.7069 18.6053 18.5771 18.4974 18.4213 18.4749L16.6206 18.2L15.8141 16.4914ZM16.5954 20.0996V20.0998C16.5029 20.1945 16.4611 20.3275 16.4826 20.4581L16.6915 21.7081L15.6344 21.1248C15.5051 21.0504 15.3458 21.0504 15.2166 21.1248L14.1804 21.7206L14.3893 20.4706C14.411 20.34 14.369 20.2072 14.2765 20.1123L13.3741 19.1665L14.5983 18.9998C14.7359 18.9777 14.8534 18.8886 14.9116 18.7623L15.4339 17.6456L15.9603 18.7498C16.0185 18.8761 16.136 18.9652 16.2737 18.9874L17.4938 19.1708L16.5954 20.0996Z" fill="white"></path>
<path d="M22.537 10C19.6153 9.99907 16.7853 11.016 14.5357 12.875L15.0705 13.5168C17.2889 11.6903 20.104 10.743 22.9786 10.8557C25.853 10.9682 28.5851 12.133 30.6528 14.1274C32.7205 16.1218 33.9788 18.8062 34.1874 21.6674C34.3959 24.5284 33.5403 27.366 31.7835 29.6379C31.3799 28.7922 30.6733 28.1278 29.8031 27.7753C30.2191 27.3949 30.4629 26.8628 30.4791 26.3001C30.4953 25.7374 30.2825 25.192 29.8891 24.7884C29.4958 24.3847 28.9554 24.1569 28.3908 24.1569C27.8263 24.1569 27.2859 24.3847 26.8925 24.7884C26.4992 25.192 26.2863 25.7374 26.3026 26.3001C26.3188 26.8628 26.5626 27.395 26.9785 27.7753C26.0383 28.152 25.2918 28.8934 24.9103 29.8297C24.6557 29.677 24.3871 29.5486 24.1081 29.4463C24.6522 29.012 24.9904 28.3713 25.0415 27.6783C25.0926 26.9852 24.8523 26.3022 24.3779 25.793C23.9036 25.2839 23.2381 24.9946 22.5412 24.9946C21.8443 24.9946 21.179 25.2839 20.7046 25.793C20.2303 26.3021 19.9898 26.9852 20.0411 27.6783C20.0922 28.3713 20.4304 29.012 20.9743 29.4463C20.5695 29.5947 20.1872 29.798 19.838 30.0505C19.4851 29.0166 18.6979 28.1874 17.6819 27.7796C18.1001 27.4002 18.3463 26.8678 18.364 26.3042C18.3817 25.7406 18.1697 25.1939 17.7762 24.789C17.3827 24.384 16.8414 24.1554 16.276 24.1554C15.7104 24.1554 15.1691 24.384 14.7757 24.789C14.3821 25.1939 14.17 25.7406 14.1878 26.3042C14.2055 26.8678 14.4517 27.4002 14.8699 27.7796C14.1136 28.0853 13.4762 28.6258 13.0524 29.3213C11.4764 27.1485 10.699 24.5008 10.8512 21.8232C11.0034 19.1459 12.0759 16.6028 13.8881 14.6213L13.2863 14.0629C11.3451 16.179 10.1925 18.8962 10.0221 21.7591C9.85157 24.622 10.6734 27.4562 12.3499 29.7867C14.0265 32.1171 16.4556 33.8015 19.2295 34.5576C22.0038 35.3138 24.9545 35.0958 27.5865 33.9399C30.2186 32.7838 32.3722 30.7605 33.6858 28.2094C34.9994 25.6581 35.3931 22.7337 34.8013 19.927C34.2092 17.1203 32.6673 14.6023 30.4344 12.7947C28.2015 10.9874 25.4129 10.0006 22.5373 10L22.537 10ZM27.1331 26.25C27.1331 25.9185 27.2651 25.6004 27.5002 25.3661C27.7352 25.1317 28.0542 25 28.3865 25C28.7189 25 29.0379 25.1317 29.2729 25.3661C29.5079 25.6004 29.64 25.9185 29.64 26.25C29.64 26.5814 29.5079 26.8995 29.2729 27.1339C29.0379 27.3682 28.7189 27.4999 28.3865 27.4999C28.0542 27.4999 27.7351 27.3682 27.5002 27.1339C27.2652 26.8995 27.1331 26.5814 27.1331 26.25ZM20.8657 27.5C20.8657 27.058 21.0418 26.6341 21.3551 26.3214C21.6687 26.0089 22.0938 25.8333 22.537 25.8333C22.9802 25.8333 23.4053 26.0089 23.7188 26.3214C24.0322 26.6341 24.2083 27.058 24.2083 27.5C24.2083 27.9419 24.0322 28.3659 23.7188 28.6785C23.4053 28.991 22.9802 29.1666 22.537 29.1666C22.0938 29.1666 21.6687 28.991 21.3551 28.6785C21.0418 28.3658 20.8657 27.9419 20.8657 27.5ZM15.0161 26.25C15.0161 25.9185 15.1482 25.6004 15.3832 25.3661C15.6182 25.1317 15.9372 25 16.2696 25C16.6019 25 16.9209 25.1317 17.1559 25.3661C17.3909 25.6004 17.523 25.9185 17.523 26.25C17.523 26.5814 17.391 26.8995 17.1559 27.1339C16.9209 27.3682 16.6019 27.4999 16.2696 27.4999C15.9372 27.4999 15.6182 27.3682 15.3832 27.1339C15.1482 26.8995 15.0161 26.5814 15.0161 26.25ZM13.6164 30.0375C13.9637 29.2896 14.6123 28.7231 15.4015 28.4782C16.1907 28.2334 17.0469 28.3329 17.7585 28.7522C18.4699 29.1716 18.9704 29.8716 19.1358 30.6791C18.4875 31.3902 18.0797 32.2868 17.9702 33.2416C16.2886 32.526 14.7979 31.4289 13.6164 30.0375ZM18.7764 33.55C18.7764 32.2101 19.4931 30.9722 20.6567 30.3024C21.8202 29.6324 23.2535 29.6324 24.4171 30.3024C25.5807 30.9722 26.2973 32.2101 26.2973 33.55C23.8586 34.3755 21.2151 34.3755 18.7764 33.55ZM27.0953 33.2416C26.9682 32.1298 26.4377 31.1028 25.6038 30.3541C25.8631 29.5731 26.4413 28.9376 27.1956 28.6045C27.95 28.2712 28.8104 28.2712 29.5647 28.6045C30.3191 28.9376 30.8971 29.5731 31.1566 30.3541C30.0286 31.5948 28.6465 32.5795 27.1037 33.2416H27.0953Z" fill="white"></path>
</svg>