<svg width="45" height="44" viewBox="0 0 45 44" fill="none" xmlns="http://www.w3.org/2000/svg">
<ellipse cx="22.6599" cy="22" rx="22.0613" ry="22" fill="#B7D340"></ellipse>
<path d="M33.9353 15.1053C33.7848 14.8536 33.458 14.7711 33.2055 14.9213C32.9531 15.0714 32.8704 15.3973 33.0209 15.649C34.3042 17.7953 34.8483 20.3523 34.553 22.8493C34.2486 25.4228 33.1143 27.754 31.2725 29.5904C29.1058 31.7511 26.2252 32.9409 23.1611 32.9409C20.097 32.9409 17.2164 31.7511 15.0497 29.5902C15.0407 29.5813 15.032 29.572 15.0231 29.5629H15.1951C15.489 29.5629 15.7274 29.3252 15.7274 29.0321C15.7274 28.739 15.489 28.5013 15.1951 28.5013L13.7374 28.5014C13.4435 28.5014 13.205 28.7392 13.205 29.0323V30.486C13.205 30.7791 13.4434 31.0168 13.7374 31.0168C14.0313 31.0168 14.2697 30.7791 14.2697 30.486V30.3131C14.2788 30.3224 14.2878 30.3318 14.2971 30.3409C16.6647 32.7021 19.8126 34.0025 23.1614 34.0025C26.5102 34.0025 29.658 32.7021 32.0257 30.3409C34.0383 28.3339 35.278 25.7861 35.6107 22.9733C35.9331 20.2456 35.3383 17.4512 33.9357 15.1052L33.9353 15.1053Z" fill="white"></path>
<path d="M11.8041 19.8824C12.1556 17.4162 13.2778 15.1789 15.0492 13.412C17.2159 11.2514 20.0966 10.0616 23.1607 10.0616C26.0372 10.0616 28.7521 11.1104 30.8662 13.0263H30.7126C30.4187 13.0263 30.1803 13.264 30.1803 13.5571C30.1803 13.8502 30.4187 14.088 30.7126 14.088H32.1703C32.4642 14.088 32.7026 13.8502 32.7026 13.5571V12.1034C32.7026 11.8103 32.4643 11.5726 32.1703 11.5726C31.8764 11.5726 31.638 11.8103 31.638 12.1034V12.2924C29.3194 10.1656 26.3303 9 23.1606 9C19.812 9 16.664 10.3003 14.2963 12.6615C12.3605 14.592 11.134 17.0372 10.7498 19.7327C10.3784 22.3392 10.8521 25.0489 12.084 27.362C12.1796 27.5415 12.364 27.6439 12.5545 27.6439C12.6388 27.6439 12.7241 27.624 12.8038 27.5817C13.0635 27.4442 13.1621 27.1229 13.0243 26.8639C11.8973 24.7475 11.4639 22.2678 11.804 19.8821L11.8041 19.8824Z" fill="white"></path>
<path d="M16.3287 16.7346C15.6382 16.7346 15.0764 17.2948 15.0764 17.9833V25.0195C15.0764 25.7081 15.6382 26.2682 16.3287 26.2682H29.9926C30.683 26.2682 31.2448 25.708 31.2448 25.0195V17.9833C31.2448 17.2947 30.683 16.7346 29.9926 16.7346H16.3287ZM30.1799 20.6353V22.3679C28.7191 22.5965 27.5621 23.7501 27.3331 25.2068H18.9876C18.7583 23.7501 17.6015 22.5965 16.1407 22.3679V20.6353C17.6015 20.4067 18.7585 19.2531 18.9876 17.7964H27.3326C27.562 19.2529 28.7188 20.4067 30.1796 20.6353H30.1799ZM16.3287 17.7962H17.9037C17.7014 18.6662 17.0136 19.3521 16.1412 19.5538V17.9831C16.141 17.8802 16.2252 17.7962 16.3287 17.7962ZM16.141 25.0198V23.4491C17.0134 23.6508 17.7013 24.3367 17.9035 25.2067H16.3285C16.2253 25.2069 16.141 25.1229 16.141 25.0198ZM29.9923 25.2069H28.4173C28.6195 24.3369 29.3073 23.651 30.1798 23.4493V25.0199C30.1799 25.1229 30.0957 25.2069 29.9923 25.2069ZM30.1799 17.9833V19.554C29.3075 19.3523 28.6197 18.6664 28.4174 17.7964H29.9925C30.0957 17.7962 30.1799 17.8802 30.1799 17.9833Z" fill="white"></path>
<path d="M21.4805 23.4888C21.9184 24.0717 22.5151 24.3928 23.1606 24.3928C23.8061 24.3928 24.4028 24.0717 24.8408 23.4886C25.2444 22.9514 25.4666 22.2455 25.4666 21.5007C25.4666 20.7561 25.2444 20.05 24.8408 19.5128C24.4028 18.93 23.8061 18.6089 23.1606 18.6089C22.5151 18.6089 21.9184 18.93 21.4805 19.5131C21.0769 20.0503 20.8547 20.7563 20.8547 21.5011C20.8547 22.2455 21.0769 22.9516 21.4805 23.4888ZM23.1606 19.6705C23.8335 19.6705 24.4021 20.5087 24.4021 21.5009C24.4021 22.4931 23.8335 23.3313 23.1606 23.3313C22.4877 23.3313 21.9192 22.4931 21.9192 21.5009C21.9192 20.5087 22.4877 19.6705 23.1606 19.6705Z" fill="white"></path>
</svg>